<?xml version="1.0" encoding="utf-8"?>
<!-- Generator: Adobe Illustrator 18.1.1, SVG Export Plug-In . SVG Version: 6.00 Build 0)  -->
<!DOCTYPE svg PUBLIC "-//W3C//DTD SVG 1.1//EN" "http://www.w3.org/Graphics/SVG/1.1/DTD/svg11.dtd">
<svg version="1.1" id="Layer_1" xmlns="http://www.w3.org/2000/svg" xmlns:xlink="http://www.w3.org/1999/xlink" x="0px" y="0px"
	 viewBox="0 0 1280 800" enable-background="new 0 0 1280 800" xml:space="preserve">
<g>
	<g>
		<path fill="#ADD79D" d="M890.5,359.9c0,1.7-1.4,3-3,3H700.7c-1.7,0-3-1.3-3-3v-214c0-1.7,1.3-3,3-3h186.8c1.6,0,3,1.3,3,3V359.9z"
			/>
	</g>
	<g>
		<rect x="727.1" y="259.6" fill="none" width="134" height="51.5"/>
		<text transform="matrix(1 0 0 1 770.0786 285.3174)" fill="#288753" font-family="'Lora-BoldItalic'" font-size="33.9976">tea</text>
	</g>
	<g>
		<rect x="727.1" y="214.4" fill="none" width="134" height="51.4"/>
		<text transform="matrix(1 0 0 1 732.4272 251.6392)" fill="#FFFFFF" font-family="'OpenSans-CondensedBold'" font-size="48.9566">GREEN</text>
	</g>
</g>
<g>
	<g>
		<path fill="#EDE7DD" d="M893.9,611.9c0,1.7-1.3,3-3,3H704.1c-1.7,0-3-1.3-3-3V398c0-1.6,1.3-3,3-3h186.8c1.7,0,3,1.4,3,3V611.9z"
			/>
	</g>
	<g>
		<rect x="730.5" y="510.6" fill="none" width="134" height="51.5"/>
		<text transform="matrix(1 0 0 1 773.4782 536.3029)" fill="#6DA6B6" font-family="'Lora-BoldItalic'" font-size="33.9976">tea</text>
	</g>
	<g>
		<rect x="722.2" y="466.5" fill="none" width="150.6" height="51.4"/>
		<text transform="matrix(1 0 0 1 725.6677 503.6661)" fill="#FFFFFF" font-family="'OpenSans-CondensedBold'" font-size="48.9566">HERBAL</text>
	</g>
</g>
<g>
	<g>
		<path fill="#C9242A" d="M1128.5,361.3c0,1.6-1.4,3-3,3H938.7c-1.6,0-3-1.4-3-3v-214c0-1.6,1.4-3,3-3h186.8c1.6,0,3,1.4,3,3V361.3z
			"/>
	</g>
	<g>
		<rect x="965.1" y="260.4" fill="none" width="134" height="51.5"/>
		<text transform="matrix(1 0 0 1 1008.062 286.0612)" fill="#7C1214" font-family="'Lora-BoldItalic'" font-size="33.9976">tea</text>
	</g>
	<g>
		<rect x="965.1" y="215.8" fill="none" width="134" height="51.4"/>
		<text transform="matrix(1 0 0 1 995.7846 252.9986)" fill="#FFFFFF" font-family="'OpenSans-CondensedBold'" font-size="48.9566">RED</text>
	</g>
</g>
<g>
	<g>
		<path fill="#246DB6" d="M1128.5,611.8c0,1.6-1.4,3-3,3H938.7c-1.6,0-3-1.4-3-3v-214c0-1.7,1.4-3,3-3h186.8c1.6,0,3,1.3,3,3V611.8z
			"/>
	</g>
	<g>
		<rect x="965.1" y="510.5" fill="none" width="134" height="51.5"/>
		<text transform="matrix(1 0 0 1 1008.062 536.131)" fill="#3B4AA3" font-family="'Lora-BoldItalic'" font-size="33.9976">tea</text>
	</g>
	<g>
		<rect x="965.1" y="466.3" fill="none" width="134" height="51.4"/>
		<text transform="matrix(1 0 0 1 973.0278 503.503)" fill="#FFFFFF" font-family="'OpenSans-CondensedBold'" font-size="48.9566">BLACK</text>
	</g>
</g>
<g>
	<path fill="none" stroke="#EDE7DD" stroke-width="2" stroke-miterlimit="10" d="M278.5,231.1c0,0-93.3-203.6-86.6,21.9
		c7.1,58.9-9.1,134-9.1,134"/>
	<g>
		<polygon fill="#DBD7C5" points="360.9,339.9 257.7,365.6 231.6,260.7 246.3,228 306.5,213.1 334.9,235.3 		"/>
	</g>
	<g opacity="0.6">
		<polygon fill="#EDE7DD" points="246.1,228.1 263.8,246.9 299.4,238.1 306.4,213.2 		"/>
	</g>
	
		<rect x="274.1" y="229.5" transform="matrix(0.9704 -0.2414 0.2414 0.9704 -47.3001 74.0518)" fill="#C69C6D" width="8.9" height="1.2"/>
	<polygon fill="#ADD79D" points="200.1,387.9 194.8,381.7 170.2,381.8 164.7,388.3 164.7,388.1 164.9,416.8 164.8,416.7 
		170.5,423.8 170.4,424.3 195,424.2 194.8,423.6 200.2,416.6 200.2,416.7 200.1,387.8 	"/>
</g>
<g>
	<path fill="#585858" d="M538,579.9h-7c-1.3,0-2.3-1-2.3-2.3v-74.7c0-1.3,1-2.3,2.3-2.3h7c1.3,0,2.3,1,2.3,2.3v74.7
		C540.3,578.8,539.3,579.9,538,579.9z"/>
	<path fill="#ED4A41" d="M506.5,614.7h-331c-14.2,0-25.8-11.6-25.8-25.8v-97.3c0-14.2,11.6-25.8,25.8-25.8h331
		c14.2,0,25.8,11.6,25.8,25.8v97.3C532.3,603.1,520.7,614.7,506.5,614.7z"/>
	<path fill="#E4DDCA" d="M503.8,606.1H178.2c-11.7,0-21.2-9.5-21.2-21.2v-89.4c0-11.7,9.5-21.2,21.2-21.2h325.5
		c11.7,0,21.2,9.5,21.2,21.2v89.4C525,596.5,515.4,606.1,503.8,606.1z"/>
	<path fill="#A1A9A0" d="M276.3,588.7h-88c-7.2,0-13-5.9-13-13v-71c0-7.2,5.9-13,13-13h88c7.2,0,13,5.9,13,13v71
		C289.3,582.9,283.4,588.7,276.3,588.7z"/>
	<path fill="#A1A9A0" d="M404.3,588.7h-88c-7.2,0-13-5.9-13-13v-71c0-7.2,5.9-13,13-13h88c7.2,0,13,5.9,13,13v71
		C417.3,582.9,411.4,588.7,404.3,588.7z"/>
	<g>
		<text transform="matrix(1 0 0 1 190.2455 562.1198)" fill="#585858" font-family="'FiraMono-Bold'" font-size="70">01</text>
	</g>
	<g>
		<text transform="matrix(1 0 0 1 318.9098 562.1204)" fill="#585858" font-family="'FiraMono-Bold'" font-size="70">28</text>
	</g>
	<path fill="#585858" d="M479.5,540.5c0.9-4.8-2.3-9.3-7.8-9.5c-1.5,0-3.1,0.4-4.6,1.1l2.9-16.9H465l-5.4,30.7h5.1l1-5.4
		c0.4-2.4,2.8-4.5,5.2-4.4c3.7,0.2,3.8,3.2,3.6,4.4l-2.7,15.2h5.1L479.5,540.5z"/>
	<path fill="#A1A9A0" d="M480.4,560.1c-2.4,0-4-2-3.6-4.4c0.4-2.4,2.7-4.4,5.1-4.4h2.9l0.9-5.1h-2.9c-5.2,0-10.4,4.2-11.2,9.5
		c-1.1,7.7,5.1,9.5,7.8,9.5l2.9,0l0.9-5.1C483.3,560.1,481,560.1,480.4,560.1z"/>
</g>
<g>
	<path fill="#CCCCCC" d="M461,186.3c-6.2,0.1-1.5-28.6-5-32.8c-1.1-1.3-9.4-3-14.7-4.2c-1.5,37.4-12.5,178.7-48.7,236.9
		c-34.7,12.5-119.5,12.1-128.3-4.2C226.6,317,222,201.2,220,147.6c-4.7,1.4-12.4,3.1-15,4.9c0,0-15,157.5,45,261
		c10.5,19.5,112,20,153.5,5c12-8.6,30-61.9,30-61.9s3.5-7.1,10-6.1s92.5,12.9,103-65.6S509,189.2,461,186.3z M525.3,271
		c-12,78.7-81.8,55.6-81.3,55.3s13.5-89.1,12.7-118.7C456.7,207.4,536.3,199.4,525.3,271z"/>
	<path opacity="0.13" fill="#585858" d="M461,187c-6.2,0.1-1.5-28.6-5-32.8c-10-11.9-219.5-24-251-1c0,0-15,157.5,45,261
		c10.5,19.5,112,20,153.5,5c12-8.6,30-61.9,30-61.9s3.5-7.1,10-6.1s92.5,12.9,103-65.6S509,189.8,461,187z M525.3,271.7
		c-12,78.7-81.8,55.6-81.3,55.3s13.5-89.1,12.7-118.7C456.7,208,536.3,200.1,525.3,271.7z"/>
</g>
</svg>
